<svg xmlns="http://www.w3.org/2000/svg" width="7.91" height="8">
    <path data-name="Path 177104" d="M22.571 16.038H20.65v-.418a.565.565 0 0 0-.61-.52h-2.17a.565.565 0 0 0-.61.52v.418h-1.921a.339.339 0 1 0 0 .678h.418l.418 5.266a1.131 1.131 0 0 0 1.13 1.119h3.288a1.131 1.131 0 0 0 1.13-1.119l.429-5.254h.418a.333.333 0 0 0 .339-.339.343.343 0 0 0-.338-.351zm-4.633-.26h2.034v.26h-2.034zm.136 5.5h-.011a.345.345 0 0 1-.339-.328L17.6 18.2a.327.327 0 0 1 .328-.35h.011a.345.345 0 0 1 .339.328l.124 2.757a.347.347 0 0 1-.329.346zm2.113-.328a.345.345 0 0 1-.339.328h-.011a.347.347 0 0 1-.328-.35l.124-2.757a.345.345 0 0 1 .339-.328h.011a.347.347 0 0 1 .328.35z" transform="translate(-15 -15.1)" style="fill:#f33"/>
</svg>
